/* XPM */
const char * icon128_xpm[] = {
"128 128 49 1",
" 	c None",
".	c #FF2424",
"+	c #FF2626",
"@	c #C51B1B",
"#	c #2D0606",
"$	c #000000",
"%	c #D31D1D",
"&	c #5B0C0C",
"*	c #1E0404",
"=	c #F82323",
"-	c #E21F1F",
";	c #9D1616",
">	c #1B0303",
",	c #FE2323",
"'	c #FD2323",
")	c #FF2525",
"!	c #FF2828",
"~	c #DE1F1F",
"{	c #5A0C0C",
"]	c #FC2323",
"^	c #220404",
"/	c #2C0606",
"(	c #C61B1B",
"_	c #D11D1D",
":	c #9E1616",
"<	c #1C0404",
"[	c #FF2727",
"}	c #DD1F1F",
"|	c #FB2323",
"1	c #A11616",
"2	c #200404",
"3	c #E01F1F",
"4	c #310707",
"5	c #D21D1D",
"6	c #D61E1E",
"7	c #590C0C",
"8	c #FF2929",
"9	c #1A0303",
"0	c #991515",
"a	c #310606",
"b	c #300606",
"c	c #CA1C1C",
"d	c #C61C1C",
"e	c #210404",
"f	c #2B0606",
"g	c #C21B1B",
"h	c #240505",
"i	c #5D0D0D",
"j	c #F42222",
"......................+@#$                                                                                                      ",
"......................+%&*                                                                                                      ",
".......................=-;>$                                                                                                    ",
".....................,')!~{>                                                                                                    ",
".....................,,.)]~;*$$$                                                                                                ",
".......................,')!-&^//                                                                                                ",
".......................,,.)=%(_:<$                                                                                              ",
".........................,'.+[!}{>                                                                                              ",
".........................,,..))|~;*$$$                                                                                          ",
".............................,')!-&^//                                                                                          ",
".............................,,.)=%(_12$$$                                                      $$$$                            ",
"...............................,'.+[!3&^//                                                      /44/                            ",
"...............................,,..))=5(_:<$                                                  $<:66:<$                          ",
"...................................,'.+[!}{>                                                  <7}88}{9                          ",
"...................................,,..))|~;*$$$                                            $/:}|))|~09$                        ",
".......................................,')!-&^//                                            $a5!)'')!~{9                        ",
".......................................,,.)=%(_12$$$                                        $bc[),,.)]~09$                      ",
".........................................,'.+[!3&^//                                        $bd+...,')!~{9                      ",
".........................................,,..))=5(_12$$$$$                                  $bd+...,,.)]~09$                    ",
".............................................,'.+[!3&efba/                                  $bd+.....,')!~{9                    ",
".............................................,,..))=5g@c512$$$$$                            $bd+.....,,.)]~09$                  ",
".................................................,'.+++[!3&efba/                            $bd+.......,')!~{9                  ",
".................................................,,....))=5g@c512$$$$$$$                    $bd+.......,,.)]~09$                ",
".......................................................,'.+++[!3&efbbba/                    $bd+.........,')!~{<                ",
".......................................................,,....))=5g@ddc512$$$$$$$$$          $b(+.........,,.)|}:/$              ",
"...,,........................................................,'.+++++[!3&efbbbbba/          $/(+...........,')!_/$              ",
"++.',........................................................,,......))=5g@ddddc512$$$$$$$$$$hd+...........,,)[(^$              ",
"@%=).,,..............................................................,'.+++++++[!3&efbbbbbb/hi6+..............+%&*              ",
"#&-!)',..............................................................,,........))=5g@ddddd((d6j................=-;>$            ",
"$*;~|))..,,....................................................................,'.++++++++++++.',............,')!~{9            ",
"  >{}![+.',....................................................................,,..............,,............,,.)]~09$          ",
"  $<:_(5=))..,,................................................................................................,')!~{9          ",
"    //^&3![+.',................................................................................................,,.)]~09$        ",
"    $$$21_(5=))..,,..............................................................................................,')!~{9        ",
"        //^&3![+.',..............................................................................................,,.)]~09$      ",
"        $$$21_(5=))..,,............................................................................................,')!~{9      ",
"            //^&3![+.',............................................................................................,,.)]~09$    ",
"            $$$21_(5=))..,,..........................................................................................,')!~{<    ",
"                //^&3![+.',..........................................................................................,,.)|}:/$  ",
"                $$$21_(5=))..,,........................................................................................,')!5a$  ",
"                    //^&3![+.',........................................................................................,,)[cb$  ",
"                    $$$21_(5=))....,,.....................................................................................+db$  ",
"                        //^&3![+++.',.....................................................................................+db$  ",
"                        $$$215c@g5=))....,,............................................................................,,)[cb$  ",
"                            /abfe&3![+++.',............................................................................,')!5a$  ",
"                            $$$$$215c@g5=))..,,......................................................................,,.)|}:/$  ",
"                                  /abfe&3![+.',......................................................................,')!~{<    ",
"                                  $$$$$21_(5=))..........,,........................................................,,.)]~09$    ",
"                                        //^&3![+++++++++.',........................................................,')!~{9      ",
"                                        $$$215cdddddd@g5=))....,,................................................,,.)]~09$      ",
"                                            /abbbbbbbfe&3![+++.',................................................,')!~{9        ",
"                                            $$$$$$$$$$$215c@g5=))..............,,..............................,,.)]~09$        ",
"                                                        /abfe&3![+++++++++++++.',..............................,')!~{9          ",
"                                                        $$$$$215cdddddddddd@g5=))..............,,............,,.)]~09$          ",
"                            $$$$                              /abbbbbbbbbbbfe&3![+++++++++++++.',............,')!~{9            ",
"                            /44/                              $$$$$$$$$$$$$$$215cddddddddd((d6j................=-;>$            ",
"                          $<:66:<$                                            /abbbbbbbbbbb/hi6+..............+%&*              ",
"                          9{}88}7<                                            $$$$$$$$$$$$$$$hd+...........,,)[(^$              ",
"                        $90~|))|}:/$                                                        $/(+...........,')!_/$              ",
"                        9{~!)'')!5a$                                                        $b(+.........,,.)|}:/$              ",
"                      $90~]).,,)[cb$                                                        $bd+.........,')!~{<                ",
"                      9{~!)',...+db$                                                        $bd+.......,,.)]~09$                ",
"                    $90~]).,,...+db$                                                        $bd+.......,')!~{9                  ",
"                    9{~!)',.....+db$                                                        $bd+.....,,.)]~09$                  ",
"                  $90~]).,,.....+db$                                                        $bd+.....,')!~{9                    ",
"                  9{~!)',.......+db$                                                        $bd+...,,.)]~09$                    ",
"                $90~]).,,.......+db$                                                        $bd+...,')!~{9                      ",
"                <{~!)',.........+db$                                                        $bc[),,.)]~09$                      ",
"              $/:}|).,,.........+(b$                                                        $a5!)'')!~{9                        ",
"              $/_!)',...........+(/$                                                        $/:}|))|~09$                        ",
"              $^([),,...........+dh$$$$$$$$$$$$$$$                                            <7}88}{9                          ",
"              *&%+..............+6ih/bbbbbbbbbbba/                                            $<:66:<$                          ",
"            $>;-=................j6d((dddddddddc512$$$$$$$$$$$$$$$                              /44/                            ",
"            9{~!)',............,'.+++++++++++++[!3&efbbbbbbbbbbba/                              $$$$                            ",
"          $90~]).,,............,,..............))=5g@ddddddddddc512$$$$$                                                        ",
"          9{~!)',..............................,'.+++++++++++++[!3&efba/                                                        ",
"        $90~]).,,..............................,,..............))=5g@c512$$$$$$$$$$$                                            ",
"        9{~!)',................................................,'.+++[!3&efbbbbbbba/                                            ",
"      $90~]).,,................................................,,....))=5g@ddddddc512$$$                                        ",
"      9{~!)',........................................................,'.+++++++++[!3&^//                                        ",
"    $90~]).,,........................................................,,..........))=5(_12$$$$$                                  ",
"    <{~!)',......................................................................,'.+[!3&efba/                                  ",
"  $/:}|).,,......................................................................,,..))=5g@c512$$$$$                            ",
"  $a5!)',............................................................................,'.+++[!3&efba/                            ",
"  $bc[),,............................................................................,,....))=5g@c512$$$                        ",
"  $bd+.....................................................................................,'.+++[!3&^//                        ",
"  $bd+.....................................................................................,,....))=5(_12$$$                    ",
"  $bc[),,........................................................................................,'.+[!3&^//                    ",
"  $a5!)',........................................................................................,,..))=5(_12$$$                ",
"  $/:}|).,,..........................................................................................,'.+[!3&^//                ",
"    <{~!)',..........................................................................................,,..))=5(_12$$$            ",
"    $90~]).,,............................................................................................,'.+[!3&^//            ",
"      9{~!)',............................................................................................,,..))=5(_12$$$        ",
"      $90~]).,,..............................................................................................,'.+[!3&^//        ",
"        9{~!)',..............................................................................................,,..))=5(_12$$$    ",
"        $90~]).,,................................................................................................,'.+[!3&^//    ",
"          9{~!)',................................................................................................,,..))=5(_:<$  ",
"          $90~]).,,............,,..............,,....................................................................,'.+[!}{>  ",
"            9{~!)',............,'.++++++++++++.',....................................................................,,..))|~;*$",
"            $>;-=................j6d((ddddd@g5=))........,,..............................................................,')!-&e",
"              *&%+..............+6ih/bbbbbbfe&3![+++++++.',..............................................................,,.)=%g",
"              $^([),,...........+dh$$$$$$$$$$215cdddd@g5=))......,,........................................................,'.++",
"              $/_!)',...........+(/$          /abbbbbfe&3![+++++.',........................................................,,...",
"              $/:}|).,,.........+(b$          $$$$$$$$$215cdd@g5=))....,,.......................................................",
"                <{~!)',.........+db$                    /abbbfe&3![+++.',.......................................................",
"                $90~]).,,.......+db$                    $$$$$$$215c@g5=))....,,.................................................",
"                  9{~!)',.......+db$                            /abfe&3![+++.',.................................................",
"                  $90~]).,,.....+db$                            $$$$$215c@g5=))..,,.............................................",
"                    9{~!)',.....+db$                                  /abfe&3![+.',.............................................",
"                    $90~]).,,...+db$                                  $$$$$21_(5=))..,,.........................................",
"                      9{~!)',...+db$                                        //^&3![+.',.........................................",
"                      $90~]).,,)[cb$                                        $$$21_(%=).,,.......................................",
"                        9{~!)'')!5a$                                            //^&-!)',.......................................",
"                        $90~|))|}:/$                                            $$$*;~|))..,,...................................",
"                          9{}88}7<                                                  >{}![+.',...................................",
"                          $<:66:<$                                                  $<:_(5=))..,,...............................",
"                            /44/                                                      //^&3![+.',...............................",
"                            $$$$                                                      $$$21_(%=).,,.............................",
"                                                                                          //^&-!)',.............................",
"                                                                                          $$$*;~|))..,,.........................",
"                                                                                              >{}![+.',.........................",
"                                                                                              $<:_(%=).,,.......................",
"                                                                                                //^&-!)',.......................",
"                                                                                                $$$*;~]).,,.....................",
"                                                                                                    >{~!)',.....................",
"                                                                                                    $>;-=.......................",
"                                                                                                      *&%+......................",
"                                                                                                      $eg+......................"};
