/* XPM */
const char * icon32_xpm[] = {
"128 128 20 1",
" 	c None",
".	c #FF2424",
"+	c #FF2525",
"@	c #3B0808",
"#	c #FF2626",
"$	c #731010",
"%	c #FE2323",
"&	c #C21B1B",
"*	c #470A0A",
"=	c #000000",
"-	c #C31B1B",
";	c #430909",
">	c #FF2929",
",	c #370707",
"'	c #FF2727",
")	c #781010",
"!	c #C11B1B",
"~	c #7C1111",
"{	c #6F0F0F",
"]	c #C41B1B",
".....+@                                                                                                                         ",
"......#$                                                                                                                        ",
".......%&*              =                                                                                                       ",
".........+-=           ;>,                                                                                                      ",
"..........%'$          ).#,                                                                                                     ",
"............%#!~ =     )..#,                                                                                                    ",
"+..............%#'{)*= $...'=                                                                                                   ",
"@'%.................+##+...%]                                                                                                   ",
" =$'%.......................%]                                                                                                  ",
"   =$'%......................%-                                                                                                 ",
"     =$'+.....................#=                                                                                                ",
"       =*{'%.................%-                                                                                                 ",
"          =~){'+............%]                                                                                                  ",
"       =      =*)))!###+...%]                                                                                                   ",
"      ,>;           == $...'=                                                                                                   ",
"     ,#.)              )..#,                                                                                                    ",
"    ,#..)              ).#,                                                                                                     ",
"   ='...$ ==           ;>,                                                                                                      ",
"   ]%...+###!)))*=      =                                                                                                       ",
"  ]%............+'{)~=                                                                                                          ",
" -%.................%'{*=                                                                                                       ",
"=#.....................+'$=                                                                                                     ",
" -%......................%'$=                                                                                                   ",
"  ]%.......................%'$=                                                                                                 ",
"   ]%...+##+.................%'@                                                                                                ",
"   ='...$ =*){'#%..............+                                                                                                ",
"    ,#..)     = ~!#%............                                                                                                ",
"     ,#.)          $'%..........                                                                                                ",
"      ,>;           =-+.........                                                                                                ",
"       =              *&%.......                                                                                                ",
"                        $#......                                                                                                ",
"                         @+.....                                                                                                ",
"                                                                                                                                ",
"                                                                                                                                ",
"                                                                                                                                ",
"                                                                                                                                ",
"                                                                                                                                ",
"                                                                                                                                ",
"                                                                                                                                ",
"                                                                                                                                ",
"                                                                                                                                ",
"                                                                                                                                ",
"                                                                                                                                ",
"                                                                                                                                ",
"                                                                                                                                ",
"                                                                                                                                ",
"                                                                                                                                ",
"                                                                                                                                ",
"                                                                                                                                ",
"                                                                                                                                ",
"                                                                                                                                ",
"                                                                                                                                ",
"                                                                                                                                ",
"                                                                                                                                ",
"                                                                                                                                ",
"                                                                                                                                ",
"                                                                                                                                ",
"                                                                                                                                ",
"                                                                                                                                ",
"                                                                                                                                ",
"                                                                                                                                ",
"                                                                                                                                ",
"                                                                                                                                ",
"                                                                                                                                ",
"                                                                                                                                ",
"                                                                                                                                ",
"                                                                                                                                ",
"                                                                                                                                ",
"                                                                                                                                ",
"                                                                                                                                ",
"                                                                                                                                ",
"                                                                                                                                ",
"                                                                                                                                ",
"                                                                                                                                ",
"                                                                                                                                ",
"                                                                                                                                ",
"                                                                                                                                ",
"                                                                                                                                ",
"                                                                                                                                ",
"                                                                                                                                ",
"                                                                                                                                ",
"                                                                                                                                ",
"                                                                                                                                ",
"                                                                                                                                ",
"                                                                                                                                ",
"                                                                                                                                ",
"                                                                                                                                ",
"                                                                                                                                ",
"                                                                                                                                ",
"                                                                                                                                ",
"                                                                                                                                ",
"                                                                                                                                ",
"                                                                                                                                ",
"                                                                                                                                ",
"                                                                                                                                ",
"                                                                                                                                ",
"                                                                                                                                ",
"                                                                                                                                ",
"                                                                                                                                ",
"                                                                                                                                ",
"                                                                                                                                ",
"                                                                                                                                ",
"                                                                                                                                ",
"                                                                                                                                ",
"                                                                                                                                ",
"                                                                                                                                ",
"                                                                                                                                ",
"                                                                                                                                ",
"                                                                                                                                ",
"                                                                                                                                ",
"                                                                                                                                ",
"                                                                                                                                ",
"                                                                                                                                ",
"                                                                                                                                ",
"                                                                                                                                ",
"                                                                                                                                ",
"                                                                                                                                ",
"                                                                                                                                ",
"                                                                                                                                ",
"                                                                                                                                ",
"                                                                                                                                ",
"                                                                                                                                ",
"                                                                                                                                ",
"                                                                                                                                ",
"                                                                                                                                ",
"                                                                                                                                ",
"                                                                                                                                ",
"                                                                                                                                "};
