/* XPM */
const char * icon64_xpm[] = {
"128 128 3 1",
" 	c None",
".	c #FF2424",
"+	c #000000",
"............+                                                                                                                   ",
".............+                                                                                                                  ",
"..............++                                                                                                                ",
"................+                                                                                                               ",
".................++                                                                                                             ",
"...................++                           ++                                                                              ",
".....................+                         +..+                                                                             ",
"......................++                      +....+                                                                            ",
"........................++                    +.....+                                                                           ",
"..........................+++                 +......+                                                                          ",
".............................+++              +.......+                                                                         ",
"................................++++          +........+                                                                        ",
"....................................+++++     +.........+                                                                       ",
".........................................++++++.........+                                                                       ",
"+........................................................+                                                                      ",
" +........................................................+                                                                     ",
"  ++.......................................................+                                                                    ",
"    ++......................................................+                                                                   ",
"      ++.....................................................+                                                                  ",
"        ++....................................................+                                                                 ",
"          ++..................................................+                                                                 ",
"            ++................................................+                                                                 ",
"              +++.............................................+                                                                 ",
"                 +++.........................................+                                                                  ",
"                    ++......................................+                                                                   ",
"                      ++++++...............................+                                                                    ",
"                            +++...........................+                                                                     ",
"              ++               ++++++++..................+                                                                      ",
"             +..+                      ++++++++.........+                                                                       ",
"            +....+                            +.........+                                                                       ",
"           +.....+                            +........+                                                                        ",
"          +......+                            +.......+                                                                         ",
"         +.......+                            +......+                                                                          ",
"        +........+                            +.....+                                                                           ",
"       +.........+                            +....+                                                                            ",
"       +.........++++++++                      +..+                                                                             ",
"      +..................++++++++               ++                                                                              ",
"     +...........................+++                                                                                            ",
"    +...............................++++++                                                                                      ",
"   +......................................++                                                                                    ",
"  +.........................................+++                                                                                 ",
" +.............................................+++                                                                              ",
" +................................................++                                                                            ",
" +..................................................++                                                                          ",
" +....................................................++                                                                        ",
"  +.....................................................++                                                                      ",
"   +......................................................++                                                                    ",
"    +.......................................................++                                                                  ",
"     +........................................................+                                                                 ",
"      +........................................................+                                                                ",
"       +.........++++++.........................................                                                                ",
"       +.........+     +++++....................................                                                                ",
"        +........+          ++++................................                                                                ",
"         +.......+              +++.............................                                                                ",
"          +......+                 +++..........................                                                                ",
"           +.....+                    ++........................                                                                ",
"            +....+                      ++......................                                                                ",
"             +..+                         +.....................                                                                ",
"              ++                           ++...................                                                                ",
"                                             ++.................                                                                ",
"                                               +................                                                                ",
"                                                ++..............                                                                ",
"                                                  +.............                                                                ",
"                                                   +............                                                                ",
"                                                                                                                                ",
"                                                                                                                                ",
"                                                                                                                                ",
"                                                                                                                                ",
"                                                                                                                                ",
"                                                                                                                                ",
"                                                                                                                                ",
"                                                                                                                                ",
"                                                                                                                                ",
"                                                                                                                                ",
"                                                                                                                                ",
"                                                                                                                                ",
"                                                                                                                                ",
"                                                                                                                                ",
"                                                                                                                                ",
"                                                                                                                                ",
"                                                                                                                                ",
"                                                                                                                                ",
"                                                                                                                                ",
"                                                                                                                                ",
"                                                                                                                                ",
"                                                                                                                                ",
"                                                                                                                                ",
"                                                                                                                                ",
"                                                                                                                                ",
"                                                                                                                                ",
"                                                                                                                                ",
"                                                                                                                                ",
"                                                                                                                                ",
"                                                                                                                                ",
"                                                                                                                                ",
"                                                                                                                                ",
"                                                                                                                                ",
"                                                                                                                                ",
"                                                                                                                                ",
"                                                                                                                                ",
"                                                                                                                                ",
"                                                                                                                                ",
"                                                                                                                                ",
"                                                                                                                                ",
"                                                                                                                                ",
"                                                                                                                                ",
"                                                                                                                                ",
"                                                                                                                                ",
"                                                                                                                                ",
"                                                                                                                                ",
"                                                                                                                                ",
"                                                                                                                                ",
"                                                                                                                                ",
"                                                                                                                                ",
"                                                                                                                                ",
"                                                                                                                                ",
"                                                                                                                                ",
"                                                                                                                                ",
"                                                                                                                                ",
"                                                                                                                                ",
"                                                                                                                                ",
"                                                                                                                                ",
"                                                                                                                                ",
"                                                                                                                                ",
"                                                                                                                                ",
"                                                                                                                                ",
"                                                                                                                                ",
"                                                                                                                                "};
