/* XPM */
const char * icon48_xpm[] = {
"128 128 52 1",
" 	c None",
".	c #FF2424",
"+	c #FF2525",
"@	c #0F0202",
"#	c #FE2323",
"$	c #FC2323",
"%	c #3B0808",
"&	c #000000",
"*	c #EF2121",
"=	c #E92020",
"-	c #F02121",
";	c #FF2727",
">	c #891313",
",	c #6D0F0F",
"'	c #7C1111",
")	c #430909",
"!	c #6C0F0F",
"~	c #C21B1B",
"{	c #0D0101",
"]	c #FF2828",
"^	c #100202",
"/	c #170303",
"(	c #DD1F1F",
"_	c #FF2626",
":	c #C11B1B",
"<	c #761010",
"[	c #6E0F0F",
"}	c #370707",
"|	c #FD2323",
"1	c #DB1E1E",
"2	c #1D0404",
"3	c #1C0303",
"4	c #FB2323",
"5	c #6F0F0F",
"6	c #771010",
"7	c #731010",
"8	c #8C1313",
"9	c #650E0E",
"0	c #470A0A",
"a	c #700F0F",
"b	c #1A0303",
"c	c #921414",
"d	c #781010",
"e	c #781111",
"f	c #ED2121",
"g	c #E01F1F",
"h	c #DB1F1F",
"i	c #C41B1B",
"j	c #0E0202",
"k	c #DE1F1F",
"l	c #EA2121",
"m	c #C01B1B",
"........+@                                                                                                                      ",
"........#$%&                                                                                                                    ",
"..........*=&                                                                                                                   ",
"...........#-@                                                                                                                  ",
".............;>,                    ')                                                                                          ",
".............#..!&                 ~.${                                                                                         ",
"...............#+]^/              &(.#;{                                                                                        ",
".................#_:<[ &          &(..#$}                                                                                       ",
"..................#..|1=&&&       &(....${                                                                                      ",
".#.....................#__]@223   &(....#]&                                                                                     ",
">_#.......................#___45667*.....+!                                                                                     ",
" 8_#.....................................#.9                                                                                    ",
"  &=*.#...................................#;}                                                                                   ",
"   &0a;+#..................................#;9                                                                                  ",
"      bc_#..................................#.,                                                                                 ",
"        &=*..#................................d                                                                                 ",
"         &0e>;_#..............................'                                                                                 ",
"             2@]+#..........................#f&                                                                                 ",
"               &[g((h.....................#.f&                                                                                  ",
"                 &&& '54_____..............i&                                                                                   ",
"           &           32222j*_____......#f&                                                                                    ",
"          8]{                &&&&&&k....#_&                                                                                     ",
"         8_|l&                     (...#_8                                                                                      ",
"        m.#.(&                    &(....8                                                                                       ",
"       8....(&                    &(.#.m                                                                                        ",
"      8_#...(                     &l|_8                                                                                         ",
"     &_#....k&&&&&&                {]8                                                                                          ",
"    &f#......_____*j22223           &                                                                                           ",
"   &i.............._____45' &&&                                                                                                 ",
"  &f.#.....................h((g[&                                                                                               ",
" &f#..........................#+]@2                                                                                             ",
" '..............................#_;>e0&                                                                                         ",
" 6................................#..*=&                                                                                        ",
" ,.#..................................#_cb                                                                                      ",
"  9;#..................................#+;a0&                                                                                   ",
"   };#...................................#.*=&                                                                                  ",
"    9.#.....................................#_8                                                                                 ",
"     !+.....*76d54___#.......................#_>                                                                                ",
"     &]#....(&   322@]__#.....................#.                                                                                ",
"      {$....(&       &&&=1|..#..................                                                                                ",
"       }$#..(&          & [<:_#.................                                                                                ",
"        {;#.(&              /^]+#...............                                                                                ",
"         {$.~                 &!..#.............                                                                                ",
"          )'                    ,>;.............                                                                                ",
"                                  @-#...........                                                                                ",
"                                   &=*..........                                                                                ",
"                                    &%$#........                                                                                ",
"                                      @+........                                                                                ",
"                                                                                                                                ",
"                                                                                                                                ",
"                                                                                                                                ",
"                                                                                                                                ",
"                                                                                                                                ",
"                                                                                                                                ",
"                                                                                                                                ",
"                                                                                                                                ",
"                                                                                                                                ",
"                                                                                                                                ",
"                                                                                                                                ",
"                                                                                                                                ",
"                                                                                                                                ",
"                                                                                                                                ",
"                                                                                                                                ",
"                                                                                                                                ",
"                                                                                                                                ",
"                                                                                                                                ",
"                                                                                                                                ",
"                                                                                                                                ",
"                                                                                                                                ",
"                                                                                                                                ",
"                                                                                                                                ",
"                                                                                                                                ",
"                                                                                                                                ",
"                                                                                                                                ",
"                                                                                                                                ",
"                                                                                                                                ",
"                                                                                                                                ",
"                                                                                                                                ",
"                                                                                                                                ",
"                                                                                                                                ",
"                                                                                                                                ",
"                                                                                                                                ",
"                                                                                                                                ",
"                                                                                                                                ",
"                                                                                                                                ",
"                                                                                                                                ",
"                                                                                                                                ",
"                                                                                                                                ",
"                                                                                                                                ",
"                                                                                                                                ",
"                                                                                                                                ",
"                                                                                                                                ",
"                                                                                                                                ",
"                                                                                                                                ",
"                                                                                                                                ",
"                                                                                                                                ",
"                                                                                                                                ",
"                                                                                                                                ",
"                                                                                                                                ",
"                                                                                                                                ",
"                                                                                                                                ",
"                                                                                                                                ",
"                                                                                                                                ",
"                                                                                                                                ",
"                                                                                                                                ",
"                                                                                                                                ",
"                                                                                                                                ",
"                                                                                                                                ",
"                                                                                                                                ",
"                                                                                                                                ",
"                                                                                                                                ",
"                                                                                                                                ",
"                                                                                                                                ",
"                                                                                                                                ",
"                                                                                                                                ",
"                                                                                                                                ",
"                                                                                                                                ",
"                                                                                                                                ",
"                                                                                                                                ",
"                                                                                                                                ",
"                                                                                                                                ",
"                                                                                                                                ",
"                                                                                                                                ",
"                                                                                                                                ",
"                                                                                                                                ",
"                                                                                                                                ",
"                                                                                                                                ",
"                                                                                                                                "};
